<svg width="70" height="39" viewBox="0 0 70 39" fill="none" xmlns="http://www.w3.org/2000/svg">
<g clip-path="url(#clip0_357_78)">
<path fill-rule="evenodd" clip-rule="evenodd" d="M0 22.8718H5.39297L8.41076 7.69881H3.01777L0 22.8718ZM3.36434 5.17004H8.43264L9.25187 0.955325H4.17682L3.36434 5.17004ZM7.56974 27.0866H12.8962L16.1293 10.7082H20.0151L20.6257 7.6913H16.7063L16.8392 6.9942C17.0898 5.70112 17.4969 4.20319 19.5054 4.20319C20.6955 4.20319 21.8368 4.33301 22.9428 4.81517L23.5501 1.62715C22.3192 1.18133 21.0203 0.953988 19.7114 0.955328C15.4337 0.955328 12.4841 3.58531 11.405 7.6913H9.55468L8.97683 10.7074H10.7994L7.56974 27.0866ZM24.7528 22.8719C30.9953 22.8719 35.3251 16.8761 35.3251 11.9785C35.3251 8.41542 32.1248 6.85595 29.0818 6.85595C22.2313 6.85595 18.5036 13.3104 18.5036 17.7502C18.5036 21.3141 21.7376 22.8719 24.7528 22.8719ZM52.1468 11.9785C52.1468 16.8761 47.817 22.8719 41.5777 22.8719C38.5641 22.8719 35.3252 21.3141 35.3252 17.7502C35.3252 13.3104 39.057 6.85595 45.8983 6.85595C48.9407 6.85595 52.1468 8.41542 52.1468 11.9785ZM60.3632 22.533H65.6002L69.809 0.955325H64.5381L63.2851 7.36676C62.6018 7.22429 61.8911 7.11302 61.1554 7.11302C55.9972 7.11302 51.3054 13.9687 51.3054 18.8671C51.3054 20.8825 52.5612 22.8719 54.6876 22.8719C57.7152 22.8719 59.8097 21.3234 60.6826 19.8769H61.0108L60.3632 22.533ZM44.8514 33.2693C44.8516 33.2691 44.8518 33.2689 44.852 33.2687H44.8511L44.8514 33.2693ZM29.9886 37.9976C35.6857 38.3584 40.9295 36.6263 44.8514 33.2693L46.4578 37.781L48.7821 26.2731L37.9855 26.2436L41.6181 29.0119C38.3765 32.1408 32.4689 34.3342 27.6478 33.7981C22.7116 33.2476 18.7762 29.9003 17.1605 26.2723H16.8215C17.8207 31.9537 22.8033 37.5542 29.9886 37.9976Z" fill="#D9293A"/>
</g>
<defs>
<clipPath id="clip0_357_78">
<rect width="70" height="37.0896" fill="white" transform="translate(0 0.955322)"/>
</clipPath>
</defs>
</svg>
