<svg width="46" height="40" viewBox="0 0 46 40" fill="none" xmlns="http://www.w3.org/2000/svg">
<g id="ifood-smile" clip-path="url(#clip0_368_13)">
<path id="Vector" d="M10.6068 19.6816C18.4205 19.6816 23.8422 12.6011 23.8422 6.82547C23.8422 2.61935 19.8341 0.780029 16.0241 0.780029C7.45029 0.780029 2.78516 8.39411 2.78516 13.6371C2.78516 17.8432 6.83407 19.6816 10.6068 19.6816Z" fill="#EA1D2C"/>
<path id="Vector_2" d="M31.4806 19.6816C39.2943 19.6816 44.716 12.6011 44.716 6.82547C44.716 2.61935 40.6999 0.780029 36.8934 0.780029C28.3241 0.780029 23.6518 8.39411 23.6518 13.6371C23.6518 17.8432 27.7052 19.6816 31.4771 19.6816" fill="#EA1D2C"/>
<path id="Vector_3" d="M35.0889 32.9156C30.2498 37.0032 23.7804 39.102 16.7489 38.6687C7.88306 38.1283 1.73598 31.3184 0.5 24.4108H0.920875C2.91514 28.8211 7.77029 32.8931 13.8632 33.5624C19.8122 34.2136 27.102 31.5467 31.1022 27.7401L26.6146 24.3728L39.9405 24.4108L37.0725 38.4058L35.0889 32.9156Z" fill="#EA1D2C"/>
</g>
<defs>
<clipPath id="clip0_368_13">
<rect width="45" height="38.44" fill="white" transform="translate(0.5 0.780029)"/>
</clipPath>
</defs>
</svg>
